Coordinates
version=1
nRows=32
nColumns=12
inDegrees=yes

Units are S.I. units (second, meters, Newtons, ...)
Angles are in degrees

endheader
time	SC_y	SC_z	SC_x	AC_y	AC_z	AC_x	GH_y	GH_z	GH_yy	EL_x	PS_y
       0.0              -48.51          29.57          4.481          47.04          2.744          14.33         -149.1          49.76         -39.42          103.3          104.9
    0.0469              -48.51          29.56          4.489          47.05          2.745          14.33         -149.1          49.76         -39.41          103.3          104.9
   0.09381               -48.5          29.56          4.497          47.05          2.745          14.33         -149.1          49.76          -39.4          103.3          104.9
    0.1407               -48.5          29.55          4.506          47.05          2.746          14.32         -149.1          49.76         -39.38          103.3          104.9
    0.1876               -48.5          29.55          4.515          47.05          2.747          14.32         -149.0          49.76         -39.36          103.3          104.9
    0.2345               -48.5          29.55          4.526          47.05          2.747          14.32         -149.0          49.76         -39.34          103.3          104.9
    0.2814               -48.5          29.54          4.536          47.05          2.748          14.31         -149.0          49.76         -39.32          103.3          104.9
    0.3283               -48.5          29.54          4.548          47.05          2.749          14.31         -149.0          49.76          -39.3          103.3          104.8
    0.3752               -48.5          29.53           4.56          47.05           2.75          14.31         -149.0          49.76         -39.28          103.3          104.8
    0.4221              -48.49          29.52          4.573          47.05          2.751           14.3         -148.9          49.76         -39.26          103.3          104.8
     0.469              -48.49          29.52          4.588          47.05          2.752           14.3         -148.9          49.76         -39.23          103.3          104.8
    0.5159              -48.49          29.51          4.603          47.05          2.753          14.29         -148.9          49.76          -39.2          103.3          104.7
    0.5628              -48.49           29.5          4.619          47.06          2.754          14.29         -148.8          49.76         -39.17          103.3          104.7
    0.6097              -48.49           29.5          4.637          47.06          2.755          14.28         -148.8          49.76         -39.14          103.3          104.7
    0.6566              -48.48          29.49          4.657          47.06          2.757          14.27         -148.8          49.76         -39.11          103.3          104.7
    0.7036              -48.48          29.48          4.677          47.06          2.758          14.27         -148.7          49.76         -39.07          103.2          104.6
    0.7505              -48.48          29.47            4.7          47.06           2.76          14.26         -148.7          49.76         -39.03          103.2          104.6
    0.7974              -48.48          29.46          4.725          47.06          2.761          14.25         -148.6          49.76         -38.98          103.2          104.5
    0.8443              -48.47          29.45          4.752          47.06          2.763          14.24         -148.6          49.75         -38.94          103.2          104.5
    0.8912              -48.47          29.43          4.782          47.07          2.765          14.23         -148.5          49.75         -38.88          103.2          104.4
    0.9381              -48.46          29.42          4.814          47.07          2.768          14.22         -148.4          49.75         -38.82          103.2          104.4
     0.985              -48.46           29.4           4.85          47.07           2.77          14.21         -148.4          49.75         -38.76          103.2          104.3
     1.032              -48.45          29.39          4.889          47.07          2.773          14.19         -148.3          49.75         -38.69          103.2          104.3
     1.079              -48.45          29.37          4.933          47.08          2.776          14.18         -148.2          49.75         -38.61          103.2          104.2
     1.126              -48.44          29.35          4.982          47.08          2.779          14.16         -148.1          49.75         -38.52          103.2          104.1
     1.173              -48.44          29.32          5.036          47.09          2.783          14.14         -148.0          49.75         -38.42          103.1          104.0
     1.219              -48.43           29.3          5.097          47.09          2.787          14.12         -147.9          49.75         -38.31          103.1          103.9
     1.266              -48.42          29.27          5.165          47.09          2.792           14.1         -147.7          49.74         -38.19          103.1          103.8
     1.313              -48.41          29.23          5.243           47.1          2.798          14.07         -147.6          49.74         -38.05          103.1          103.7
      1.36               -48.4          29.19          5.331          47.11          2.804          14.04         -147.4          49.74         -37.89          103.0          103.5
     1.407              -48.39          29.15          5.431          47.11          2.811          14.01         -147.2          49.74         -37.71          103.0          103.4
     1.454              -48.37           29.1          5.546          47.12          2.819          13.97         -146.9          49.73          -37.5          103.0          103.2
